<svg width="408" height="816" viewBox="0 0 408 816" fill="none" xmlns="http://www.w3.org/2000/svg">
<path d="M0 816C53.5793 816 106.634 805.447 156.135 784.943C205.636 764.439 250.613 734.386 288.5 696.5C326.386 658.613 356.439 613.636 376.943 564.135C397.447 514.634 408 461.579 408 408C408 354.421 397.447 301.366 376.943 251.865C356.439 202.364 326.386 157.387 288.5 119.5C250.613 81.6141 205.636 51.5611 156.135 31.0571C106.634 10.5532 53.5793 -4.68405e-06 -3.56685e-05 0L-3.49777e-05 7.90125C52.5417 7.90124 104.569 18.2501 153.111 38.3569C201.653 58.4638 245.76 87.9348 282.913 125.087C320.065 162.24 349.536 206.347 369.643 254.889C389.75 303.431 400.099 355.458 400.099 408C400.099 460.542 389.75 512.569 369.643 561.111C349.536 609.653 320.065 653.76 282.913 690.913C245.76 728.065 201.653 757.536 153.111 777.643C104.569 797.75 52.5417 808.099 0 808.099V816Z" fill="black"/>
</svg>
